<svg xmlns="http://www.w3.org/2000/svg" xmlns:xlink="http://www.w3.org/1999/xlink" width="20858" zoomAndPan="magnify" viewBox="0 0 15643.5 2405.249967" height="3207" preserveAspectRatio="xMidYMid meet" version="1.2"><defs><clipPath id="4f42cfaaf4"><path d="M 9598.648438 641 L 9885 641 L 9885 853 L 9598.648438 853 Z M 9598.648438 641 "/></clipPath><clipPath id="c5d7ceb8c6"><rect x="0" width="6621" y="0" height="1645"/></clipPath></defs><g id="4b244328ff"><g clip-rule="nonzero" clip-path="url(#4f42cfaaf4)"><path style=" stroke:none;fill-rule:nonzero;fill:#e8cdb0;fill-opacity:1;" d="M 9617.234375 849.859375 C 9617.234375 849.859375 9568.929688 736.785156 9618.640625 641.621094 L 9884.277344 641.621094 L 9882.871094 852.21875 Z M 9617.234375 849.859375 "/></g><path style=" stroke:none;fill-rule:nonzero;fill:#e8cdb0;fill-opacity:1;" d="M 10128.707031 855.019531 L 9881.542969 855.019531 L 9881.542969 429.050781 C 10006.796875 328.878906 10129.542969 425.710938 10129.542969 425.710938 Z M 10128.707031 855.019531 "/><path style=" stroke:none;fill-rule:nonzero;fill:#024059;fill-opacity:1;" d="M 10128.761719 1520.597656 L 9881.699219 1520.597656 L 9881.699219 852.269531 L 10128.761719 852.269531 Z M 10128.761719 1520.597656 "/><path style=" stroke:none;fill-rule:nonzero;fill:#024059;fill-opacity:1;" d="M 10126.976562 1523.921875 C 10126.976562 1525.984375 10126.929688 1528.046875 10126.832031 1530.109375 C 10126.730469 1532.167969 10126.585938 1534.226562 10126.386719 1536.277344 C 10126.191406 1538.332031 10125.945312 1540.378906 10125.648438 1542.417969 C 10125.355469 1544.457031 10125.011719 1546.488281 10124.621094 1548.511719 C 10124.230469 1550.535156 10123.789062 1552.550781 10123.300781 1554.550781 C 10122.8125 1556.550781 10122.277344 1558.539062 10121.695312 1560.511719 C 10121.113281 1562.488281 10120.484375 1564.445312 10119.804688 1566.386719 C 10119.128906 1568.328125 10118.40625 1570.253906 10117.640625 1572.160156 C 10116.871094 1574.066406 10116.058594 1575.949219 10115.199219 1577.816406 C 10114.339844 1579.679688 10113.4375 1581.523438 10112.492188 1583.34375 C 10111.542969 1585.160156 10110.554688 1586.957031 10109.523438 1588.726562 C 10108.488281 1590.496094 10107.417969 1592.238281 10106.300781 1593.953125 C 10105.183594 1595.667969 10104.027344 1597.351562 10102.832031 1599.011719 C 10101.636719 1600.667969 10100.402344 1602.292969 10099.128906 1603.886719 C 10097.855469 1605.480469 10096.542969 1607.042969 10095.195312 1608.574219 C 10093.847656 1610.101562 10092.460938 1611.59375 10091.042969 1613.054688 C 10089.621094 1614.511719 10088.167969 1615.933594 10086.679688 1617.320312 C 10085.191406 1618.703125 10083.671875 1620.050781 10082.121094 1621.359375 C 10080.566406 1622.667969 10078.984375 1623.9375 10077.371094 1625.167969 C 10075.761719 1626.394531 10074.117188 1627.582031 10072.449219 1628.730469 C 10070.78125 1629.875 10069.082031 1630.976562 10067.359375 1632.039062 C 10065.640625 1633.097656 10063.890625 1634.117188 10062.121094 1635.089844 C 10060.351562 1636.0625 10058.558594 1636.988281 10056.742188 1637.871094 C 10054.925781 1638.753906 10053.09375 1639.589844 10051.238281 1640.378906 C 10049.382812 1641.167969 10047.507812 1641.910156 10045.617188 1642.605469 C 10043.726562 1643.300781 10041.820312 1643.945312 10039.898438 1644.542969 C 10037.976562 1645.144531 10036.042969 1645.695312 10034.097656 1646.195312 C 10032.148438 1646.695312 10030.1875 1647.148438 10028.21875 1647.550781 C 10026.25 1647.953125 10024.273438 1648.304688 10022.285156 1648.609375 C 10020.300781 1648.910156 10018.308594 1649.164062 10016.308594 1649.367188 C 10014.3125 1649.566406 10012.308594 1649.71875 10010.304688 1649.820312 C 10008.296875 1649.921875 10006.292969 1649.972656 10004.285156 1649.972656 C 10002.277344 1649.972656 10000.269531 1649.921875 9998.261719 1649.820312 C 9996.257812 1649.71875 9994.253906 1649.566406 9992.257812 1649.367188 C 9990.257812 1649.164062 9988.265625 1648.910156 9986.28125 1648.609375 C 9984.292969 1648.304688 9982.316406 1647.953125 9980.347656 1647.550781 C 9978.378906 1647.148438 9976.417969 1646.695312 9974.472656 1646.195312 C 9972.523438 1645.691406 9970.589844 1645.144531 9968.667969 1644.542969 C 9966.746094 1643.945312 9964.839844 1643.296875 9962.949219 1642.605469 C 9961.058594 1641.910156 9959.183594 1641.167969 9957.328125 1640.378906 C 9955.476562 1639.589844 9953.640625 1638.753906 9951.824219 1637.871094 C 9950.007812 1636.988281 9948.214844 1636.0625 9946.445312 1635.089844 C 9944.675781 1634.117188 9942.929688 1633.097656 9941.207031 1632.039062 C 9939.484375 1630.976562 9937.789062 1629.875 9936.117188 1628.730469 C 9934.449219 1627.582031 9932.808594 1626.394531 9931.195312 1625.167969 C 9929.582031 1623.9375 9928 1622.667969 9926.445312 1621.359375 C 9924.894531 1620.050781 9923.375 1618.703125 9921.886719 1617.320312 C 9920.398438 1615.933594 9918.945312 1614.511719 9917.523438 1613.054688 C 9916.105469 1611.59375 9914.722656 1610.101562 9913.371094 1608.574219 C 9912.023438 1607.042969 9910.710938 1605.480469 9909.4375 1603.886719 C 9908.164062 1602.292969 9906.929688 1600.667969 9905.734375 1599.011719 C 9904.539062 1597.351562 9903.382812 1595.667969 9902.265625 1593.953125 C 9901.152344 1592.238281 9900.078125 1590.496094 9899.042969 1588.726562 C 9898.011719 1586.957031 9897.023438 1585.160156 9896.078125 1583.34375 C 9895.128906 1581.523438 9894.226562 1579.679688 9893.367188 1577.816406 C 9892.511719 1575.949219 9891.695312 1574.066406 9890.929688 1572.160156 C 9890.160156 1570.253906 9889.4375 1568.328125 9888.761719 1566.386719 C 9888.085938 1564.445312 9887.453125 1562.488281 9886.871094 1560.511719 C 9886.289062 1558.539062 9885.753906 1556.550781 9885.265625 1554.550781 C 9884.777344 1552.550781 9884.335938 1550.535156 9883.945312 1548.511719 C 9883.554688 1546.488281 9883.210938 1544.457031 9882.917969 1542.417969 C 9882.621094 1540.378906 9882.375 1538.332031 9882.179688 1536.277344 C 9881.984375 1534.226562 9881.835938 1532.167969 9881.738281 1530.109375 C 9881.636719 1528.046875 9881.589844 1525.984375 9881.589844 1523.921875 C 9881.589844 1521.859375 9881.636719 1519.796875 9881.738281 1517.738281 C 9881.835938 1515.675781 9881.984375 1513.621094 9882.179688 1511.566406 C 9882.375 1509.515625 9882.621094 1507.46875 9882.917969 1505.425781 C 9883.210938 1503.386719 9883.554688 1501.355469 9883.945312 1499.332031 C 9884.335938 1497.308594 9884.777344 1495.296875 9885.265625 1493.292969 C 9885.753906 1491.292969 9886.289062 1489.304688 9886.871094 1487.332031 C 9887.453125 1485.359375 9888.085938 1483.398438 9888.761719 1481.457031 C 9889.4375 1479.515625 9890.160156 1477.589844 9890.929688 1475.683594 C 9891.695312 1473.777344 9892.511719 1471.894531 9893.367188 1470.027344 C 9894.226562 1468.164062 9895.128906 1466.320312 9896.078125 1464.503906 C 9897.023438 1462.683594 9898.011719 1460.890625 9899.042969 1459.121094 C 9900.078125 1457.351562 9901.152344 1455.609375 9902.265625 1453.894531 C 9903.382812 1452.175781 9904.539062 1450.492188 9905.734375 1448.835938 C 9906.929688 1447.175781 9908.164062 1445.550781 9909.4375 1443.957031 C 9910.710938 1442.363281 9912.023438 1440.800781 9913.371094 1439.273438 C 9914.722656 1437.742188 9916.105469 1436.25 9917.523438 1434.792969 C 9918.945312 1433.332031 9920.398438 1431.910156 9921.886719 1430.527344 C 9923.375 1429.140625 9924.894531 1427.792969 9926.445312 1426.484375 C 9928 1425.175781 9929.582031 1423.90625 9931.195312 1422.679688 C 9932.808594 1421.449219 9934.449219 1420.261719 9936.117188 1419.117188 C 9937.789062 1417.96875 9939.484375 1416.867188 9941.207031 1415.804688 C 9942.929688 1414.746094 9944.675781 1413.730469 9946.445312 1412.757812 C 9948.214844 1411.785156 9950.007812 1410.855469 9951.824219 1409.972656 C 9953.640625 1409.09375 9955.476562 1408.257812 9957.332031 1407.46875 C 9959.183594 1406.679688 9961.058594 1405.9375 9962.949219 1405.242188 C 9964.839844 1404.546875 9966.746094 1403.898438 9968.667969 1403.300781 C 9970.589844 1402.703125 9972.523438 1402.152344 9974.472656 1401.648438 C 9976.417969 1401.148438 9978.378906 1400.695312 9980.347656 1400.292969 C 9982.316406 1399.890625 9984.292969 1399.539062 9986.28125 1399.238281 C 9988.265625 1398.933594 9990.257812 1398.683594 9992.257812 1398.480469 C 9994.253906 1398.277344 9996.257812 1398.125 9998.261719 1398.023438 C 10000.269531 1397.921875 10002.277344 1397.871094 10004.285156 1397.871094 C 10006.292969 1397.871094 10008.296875 1397.921875 10010.304688 1398.023438 C 10012.308594 1398.125 10014.3125 1398.277344 10016.308594 1398.480469 C 10018.308594 1398.683594 10020.300781 1398.933594 10022.285156 1399.238281 C 10024.273438 1399.539062 10026.25 1399.890625 10028.21875 1400.292969 C 10030.1875 1400.695312 10032.148438 1401.148438 10034.097656 1401.648438 C 10036.042969 1402.152344 10037.976562 1402.703125 10039.898438 1403.300781 C 10041.820312 1403.898438 10043.726562 1404.546875 10045.617188 1405.242188 C 10047.507812 1405.9375 10049.382812 1406.679688 10051.238281 1407.46875 C 10053.09375 1408.257812 10054.925781 1409.09375 10056.742188 1409.972656 C 10058.558594 1410.855469 10060.351562 1411.785156 10062.121094 1412.757812 C 10063.890625 1413.730469 10065.640625 1414.746094 10067.359375 1415.804688 C 10069.082031 1416.867188 10070.78125 1417.96875 10072.449219 1419.117188 C 10074.117188 1420.261719 10075.761719 1421.449219 10077.371094 1422.679688 C 10078.984375 1423.90625 10080.566406 1425.175781 10082.121094 1426.484375 C 10083.671875 1427.792969 10085.191406 1429.140625 10086.679688 1430.527344 C 10088.167969 1431.910156 10089.621094 1433.332031 10091.042969 1434.792969 C 10092.460938 1436.25 10093.847656 1437.742188 10095.195312 1439.273438 C 10096.542969 1440.800781 10097.855469 1442.363281 10099.128906 1443.957031 C 10100.402344 1445.550781 10101.636719 1447.175781 10102.832031 1448.835938 C 10104.027344 1450.492188 10105.183594 1452.175781 10106.300781 1453.894531 C 10107.417969 1455.609375 10108.488281 1457.351562 10109.523438 1459.121094 C 10110.554688 1460.890625 10111.542969 1462.683594 10112.492188 1464.503906 C 10113.4375 1466.320312 10114.339844 1468.164062 10115.199219 1470.027344 C 10116.058594 1471.894531 10116.871094 1473.777344 10117.640625 1475.683594 C 10118.40625 1477.589844 10119.128906 1479.515625 10119.804688 1481.457031 C 10120.484375 1483.398438 10121.113281 1485.359375 10121.695312 1487.332031 C 10122.277344 1489.304688 10122.8125 1491.292969 10123.300781 1493.292969 C 10123.789062 1495.296875 10124.230469 1497.308594 10124.621094 1499.332031 C 10125.011719 1501.355469 10125.355469 1503.386719 10125.648438 1505.425781 C 10125.945312 1507.46875 10126.191406 1509.515625 10126.386719 1511.566406 C 10126.585938 1513.621094 10126.730469 1515.675781 10126.832031 1517.738281 C 10126.929688 1519.796875 10126.976562 1521.859375 10126.976562 1523.921875 Z M 10126.976562 1523.921875 "/><path style=" stroke:none;fill-rule:nonzero;fill:#024059;fill-opacity:1;" d="M 10126.703125 1334.035156 L 10126.703125 1729.71875 L 10128.375 1729.71875 C 10128.375 1729.71875 9572.488281 1551.078125 10126.703125 1334.035156 Z M 10126.703125 1334.035156 "/><path style=" stroke:none;fill-rule:nonzero;fill:#024059;fill-opacity:1;" d="M 9884.652344 1511.007812 L 10127.539062 1728.046875 C 10127.539062 1728.046875 9852.097656 1727.210938 9884.652344 1511.007812 Z M 9884.652344 1511.007812 "/><path style=" stroke:none;fill-rule:nonzero;fill:#024059;fill-opacity:1;" d="M 10125.871094 1427.53125 C 10137.933594 1577.410156 10324.519531 1529.371094 10324.519531 1529.371094 C 10329.527344 1682.96875 10332.867188 1728.046875 10332.867188 1728.046875 L 10125.871094 1728.046875 C 10125.871094 1728.046875 10119.707031 1350.980469 10125.871094 1427.53125 Z M 10125.871094 1427.53125 "/><path style=" stroke:none;fill-rule:nonzero;fill:#dfb994;fill-opacity:1;" d="M 9881.625 641.160156 L 10128.328125 641.160156 L 10128.328125 850.703125 L 9881.625 850.703125 Z M 9881.625 641.160156 "/><g transform="matrix(1,0,0,1,4512,380)"><g clip-path="url(#c5d7ceb8c6)"><g style="fill:#024059;fill-opacity:1;"><g transform="translate(1.03484, 1328.938573)"><path style="stroke:none" d="M 1168.515625 -567.140625 C 1173.078125 -536.085938 1175.359375 -491.789062 1175.359375 -434.25 L 1175.359375 0 L 986.328125 0 L 986.328125 -379.453125 C 986.328125 -426.035156 984.5 -465.765625 980.84375 -498.640625 C 970.789062 -576.265625 929.691406 -615.078125 857.546875 -615.078125 C 768.960938 -615.078125 724.671875 -534.710938 724.671875 -373.984375 L 724.671875 0 L 537 0 L 537 -379.453125 C 537 -426.035156 535.171875 -465.765625 531.515625 -498.640625 C 521.472656 -576.265625 479.921875 -615.078125 406.859375 -615.078125 C 319.179688 -615.078125 275.34375 -534.710938 275.34375 -373.984375 L 275.34375 0 L 86.296875 0 L 86.296875 -728.78125 L 275.34375 -728.78125 L 275.34375 -617.828125 L 328.78125 -705.5 C 368.957031 -733.800781 420.554688 -747.953125 483.578125 -747.953125 C 541.109375 -747.953125 588.820312 -735.394531 626.71875 -710.28125 C 664.625 -685.164062 691.335938 -651.601562 706.859375 -609.59375 L 778.09375 -705.5 C 818.28125 -733.800781 870.335938 -747.953125 934.265625 -747.953125 C 1000.929688 -747.953125 1054.351562 -731.054688 1094.53125 -697.265625 C 1134.71875 -663.484375 1159.378906 -620.109375 1168.515625 -567.140625 Z M 1168.515625 -567.140625 "/></g></g><g style="fill:#024059;fill-opacity:1;"><g transform="translate(1255.852517, 1328.938573)"><path style="stroke:none" d="M 747.953125 -379.453125 C 747.953125 -352.972656 747.039062 -331.515625 745.21875 -315.078125 L 227.40625 -315.078125 C 238.363281 -180.828125 294.523438 -113.703125 395.890625 -113.703125 C 436.992188 -113.703125 471.015625 -124.660156 497.953125 -146.578125 C 524.890625 -168.492188 541.554688 -198.628906 547.953125 -236.984375 L 737 -236.984375 C 718.738281 -153.878906 678.785156 -90.410156 617.140625 -46.578125 C 555.492188 -2.742188 480.375 19.171875 391.78125 19.171875 C 286.757812 19.171875 201.367188 -13.472656 135.609375 -78.765625 C 69.859375 -144.066406 36.984375 -238.363281 36.984375 -361.65625 C 36.984375 -474.894531 71 -567.585938 139.03125 -639.734375 C 207.070312 -711.878906 296.347656 -747.953125 406.859375 -747.953125 C 513.710938 -747.953125 597.273438 -712.789062 657.546875 -642.46875 C 717.816406 -572.15625 747.953125 -484.484375 747.953125 -379.453125 Z M 398.640625 -615.078125 C 304.578125 -615.078125 249.320312 -556.171875 232.875 -438.359375 L 553.4375 -438.359375 C 540.644531 -556.171875 489.046875 -615.078125 398.640625 -615.078125 Z M 398.640625 -615.078125 "/></g></g><g style="fill:#024059;fill-opacity:1;"><g transform="translate(2047.647988, 1328.938573)"><path style="stroke:none" d="M 794.53125 -1006.875 L 794.53125 0 L 605.484375 0 L 605.484375 -112.328125 L 550.703125 -31.5 C 506.859375 2.28125 443.84375 19.171875 361.65625 19.171875 C 261.195312 19.171875 181.96875 -15.070312 123.96875 -83.5625 C 65.976562 -152.0625 36.984375 -241.101562 36.984375 -350.6875 C 36.984375 -476.71875 70.316406 -574.4375 136.984375 -643.84375 C 203.648438 -713.25 286.757812 -747.953125 386.3125 -747.953125 C 461.195312 -747.953125 518.273438 -734.253906 557.546875 -706.859375 L 605.484375 -631.515625 L 605.484375 -1006.875 Z M 416.453125 -113.703125 C 473.066406 -113.703125 518.722656 -133.109375 553.421875 -171.921875 C 588.128906 -210.734375 605.484375 -272.148438 605.484375 -356.171875 L 605.484375 -391.78125 C 605.484375 -467.582031 587.675781 -523.75 552.0625 -560.28125 C 516.445312 -596.8125 473.523438 -615.078125 423.296875 -615.078125 C 366.671875 -615.078125 320.773438 -593.382812 285.609375 -550 C 250.453125 -506.625 232.875 -444.296875 232.875 -363.015625 C 232.875 -288.128906 249.539062 -227.851562 282.875 -182.1875 C 316.21875 -136.53125 360.742188 -113.703125 416.453125 -113.703125 Z M 416.453125 -113.703125 "/></g></g><g style="fill:#024059;fill-opacity:1;"><g transform="translate(2931.225755, 1328.938573)"><path style="stroke:none" d="M 105.484375 -971.9375 C 124.660156 -990.65625 149.773438 -1000.015625 180.828125 -1000.015625 C 211.878906 -1000.015625 236.992188 -990.65625 256.171875 -971.9375 C 275.347656 -953.21875 284.9375 -929.242188 284.9375 -900.015625 C 284.9375 -869.878906 275.347656 -845.675781 256.171875 -827.40625 C 236.992188 -809.144531 211.878906 -800.015625 180.828125 -800.015625 C 149.773438 -800.015625 124.660156 -809.144531 105.484375 -827.40625 C 86.304688 -845.675781 76.71875 -869.878906 76.71875 -900.015625 C 76.71875 -929.242188 86.304688 -953.21875 105.484375 -971.9375 Z M 275.34375 0 L 86.296875 0 L 86.296875 -728.78125 L 275.34375 -728.78125 Z M 275.34375 0 "/></g></g><g style="fill:#024059;fill-opacity:1;"><g transform="translate(3295.616113, 1328.938573)"><path style="stroke:none" d="M 1141.125 -945.21875 L 1141.125 0 L 952.078125 0 L 952.078125 -437 C 952.078125 -586.769531 952.988281 -694.535156 954.8125 -760.296875 C 929.238281 -650.703125 900.015625 -543.390625 867.140625 -438.359375 L 734.265625 0 L 528.78125 0 L 393.15625 -439.734375 C 358.457031 -555.722656 330.144531 -662.117188 308.21875 -758.921875 C 310.050781 -693.160156 310.96875 -585.851562 310.96875 -437 L 310.96875 0 L 121.921875 0 L 121.921875 -945.21875 L 420.5625 -945.21875 L 634.265625 -173.96875 L 847.96875 -945.21875 Z M 1141.125 -945.21875 "/></g></g><g style="fill:#024059;fill-opacity:1;"><g transform="translate(4524.405867, 1328.938573)"><path style="stroke:none" d="M 509.59375 0 L 495.90625 -106.84375 L 460.28125 -28.765625 C 412.789062 3.191406 352.515625 19.171875 279.453125 19.171875 C 212.785156 19.171875 157.078125 0.453125 112.328125 -36.984375 C 67.578125 -74.429688 45.203125 -126.488281 45.203125 -193.15625 C 45.203125 -273.519531 79.21875 -335.390625 147.25 -378.765625 C 215.289062 -422.148438 315.066406 -443.84375 446.578125 -443.84375 L 493.15625 -443.84375 L 493.15625 -458.90625 C 493.15625 -488.132812 492.242188 -510.96875 490.421875 -527.40625 C 484.023438 -585.851562 446.582031 -615.078125 378.09375 -615.078125 C 302.289062 -615.078125 261.648438 -573.984375 256.171875 -491.796875 L 72.609375 -490.421875 C 75.347656 -570.785156 105.710938 -633.796875 163.703125 -679.453125 C 221.691406 -725.117188 295.4375 -747.953125 384.9375 -747.953125 C 566.675781 -747.953125 663.9375 -676.265625 676.71875 -532.890625 C 679.457031 -498.179688 680.828125 -460.738281 680.828125 -420.5625 L 680.828125 -184.9375 C 680.828125 -129.226562 685.394531 -67.582031 694.53125 0 Z M 352.0625 -113.703125 C 392.25 -113.703125 425.8125 -127.398438 452.75 -154.796875 C 479.6875 -182.191406 493.15625 -220.09375 493.15625 -268.5 L 493.15625 -327.40625 C 325.113281 -339.28125 241.09375 -299.550781 241.09375 -208.21875 C 241.09375 -145.207031 278.082031 -113.703125 352.0625 -113.703125 Z M 352.0625 -113.703125 "/></g></g><g style="fill:#024059;fill-opacity:1;"><g transform="translate(5294.324251, 1328.938573)"><path style="stroke:none" d=""/></g></g><g style="fill:#024059;fill-opacity:1;"><g transform="translate(5560.082684, 1328.938573)"><path style="stroke:none" d=""/></g></g><g style="fill:#024059;fill-opacity:1;"><g transform="translate(5825.852425, 1328.938573)"><path style="stroke:none" d="M 747.953125 -379.453125 C 747.953125 -352.972656 747.039062 -331.515625 745.21875 -315.078125 L 227.40625 -315.078125 C 238.363281 -180.828125 294.523438 -113.703125 395.890625 -113.703125 C 436.992188 -113.703125 471.015625 -124.660156 497.953125 -146.578125 C 524.890625 -168.492188 541.554688 -198.628906 547.953125 -236.984375 L 737 -236.984375 C 718.738281 -153.878906 678.785156 -90.410156 617.140625 -46.578125 C 555.492188 -2.742188 480.375 19.171875 391.78125 19.171875 C 286.757812 19.171875 201.367188 -13.472656 135.609375 -78.765625 C 69.859375 -144.066406 36.984375 -238.363281 36.984375 -361.65625 C 36.984375 -474.894531 71 -567.585938 139.03125 -639.734375 C 207.070312 -711.878906 296.347656 -747.953125 406.859375 -747.953125 C 513.710938 -747.953125 597.273438 -712.789062 657.546875 -642.46875 C 717.816406 -572.15625 747.953125 -484.484375 747.953125 -379.453125 Z M 398.640625 -615.078125 C 304.578125 -615.078125 249.320312 -556.171875 232.875 -438.359375 L 553.4375 -438.359375 C 540.644531 -556.171875 489.046875 -615.078125 398.640625 -615.078125 Z M 398.640625 -615.078125 "/></g></g></g></g></g></svg>